<?xml version="1.0" encoding="utf-8"?>
<!-- Generator: Adobe Illustrator 19.0.0, SVG Export Plug-In . SVG Version: 6.00 Build 0)  -->
<svg version="1.1" xmlns="http://www.w3.org/2000/svg" xmlns:xlink="http://www.w3.org/1999/xlink" x="0px" y="0px"
	 viewBox="0 0 1505 591" style="enable-background:new 0 0 1505 591;" xml:space="preserve">
<style type="text/css">
	.st0{display:none;}
	.st1{display:inline;stroke:#FFFFFF;stroke-miterlimit:10;}
	.st2{fill:#FFFFFF;}
	.st3{fill:none;stroke:#FFFFFF;stroke-width:4;stroke-miterlimit:10;}
	.st4{font-family:'ACaslonPro-Bold';}
	.st5{font-size:350px;}
</style>
<g id="Calque_2" class="st0">
	<rect id="XMLID_11_" x="-42.5" class="st1" width="1590.1" height="591"/>
</g>
<g id="Calque_1">
	<path id="XMLID_19_" class="st2" d="M522.1,256.2c0,0,73.5-22.7,66.2-75.4c-8.2-58.7-39.9-75.3-182-59.6c0,0-14.3,1.6-29.8,3.5
		c-15.6,1.9-19.7,13.7-18.5,24.7c1.1,10.9,22.3,218.7,25.5,246.5s-14.4,33.7-26.3,36.3c-2.6,0.6-10.1,1.8-20.6,3.3l-22.4-213.4
		l-3.1,0.3l22.4,213.6c-27.3,4-71.4,9.7-101.1,11.7L210,233l-3.1,0.3l22.5,214.5c-9.9,0.6-18,0.7-22.8,0.1
		c-25.5-3-25.9-17.8-27.1-28.5c-1.2-10.8-24.1-230.1-26.3-250.6s-14.8-19.2-25.7-18s-23.7,4.4-22.9,12.1s0.1,6.7,6.5,10.7
		c6.5,4,11-0.8,13.7,21.7c2.7,22.5,24,228.5,24.4,235.9c0.4,7.3,2.2,11.8-5.8,15.4c-8,3.5-8.9,5.4-6.7,22.8l364.6-38.2
		c0,0,119.2-10.3,119.3-96.1S522.1,256.2,522.1,256.2z M448.5,132.8c17.7-1.9,51.6-15.2,62.3,56.7s-54.2,67.2-65.5,70.1l-10.9-103.5
		C434.4,156.2,430.8,134.7,448.5,132.8z M492.2,416.8c-30.4,4.5-32.2-17.3-33.2-25.7c-1.1-8.4-12.1-115.9-12.1-115.9
		c70-10.5,86.4,22,92.5,68.9C545.5,391.1,522.6,412.3,492.2,416.8z"/>
	<path id="XMLID_7_" class="st2" d="M159.8,218.4l201.4-21.1c0,0-4.1-39.4-5-47.4c-0.8-8,0.7-15.7-26.9-16.9
		c-27.6-1.1-29.5-3.7-40.5-2.3s-38,13.4-54.3,15.3s-38.5-2-52.9,0.6c-14.5,2.6-28.6,6.6-26.9,23.2S159.8,218.4,159.8,218.4z"/>
	<circle id="XMLID_6_" class="st2" cx="225.5" cy="251.2" r="9"/>
	<circle id="XMLID_5_" class="st2" cx="309.2" cy="367" r="8.9"/>
	<circle id="XMLID_4_" class="st3" cx="299.1" cy="273.7" r="18.4"/>
	<circle id="XMLID_3_" class="st3" cx="244.4" cy="362" r="11.6"/>
	<circle id="XMLID_2_" class="st3" cx="338.2" cy="405.4" r="15"/>
	<circle id="XMLID_1_" class="st2" cx="191.8" cy="319.7" r="5.3"/>
	<text id="XMLID_12_" transform="matrix(1 0 0 1 630.1523 426.3665)" class="st2 st4 st5">orgia</text>
</g>
</svg>
