<?xml version="1.0" encoding="utf-8"?>
<!-- Generator: Adobe Illustrator 19.0.0, SVG Export Plug-In . SVG Version: 6.00 Build 0)  -->
<svg version="1.1" xmlns="http://www.w3.org/2000/svg" xmlns:xlink="http://www.w3.org/1999/xlink" x="0px" y="0px"
	 viewBox="0 0 1000 1000" style="enable-background:new 0 0 1000 1000;" xml:space="preserve">
<style type="text/css">
	.st0{display:none;}
	.st1{display:inline;fill:#1F2126;}
	.st2{fill:#FFFFFF;}
	.st3{fill:none;stroke:#FFFFFF;stroke-width:4;stroke-miterlimit:10;}
</style>
<g id="Calque_3" class="st0">
	<rect class="st1" width="1008" height="1000"/>
</g>
<g id="Corps__x28_B_x29_">
	<path class="st2" d="M750.8,447.4c0,0,109.7-35.7,97.6-114.4c-13.6-87.8-61.5-112-274.1-85.3c0,0-21.3,2.7-44.6,5.8
		c-23.3,3.2-29.2,21-27.2,37.4c2,16.4,38.3,327.3,43.8,368.9s-20.8,50.8-38.6,55c-3.9,0.9-15.2,2.9-30.7,5.5l-38.3-319.4l-4.6,0.6
		l38.4,319.6c-40.9,6.6-106.9,16.1-151.3,19.8l-38.6-321.2l-4.6,0.6l38.5,321c-14.9,1.1-27,1.5-34.2,0.7
		c-38.2-4-39.3-26.1-41.3-42.2s-41.3-344.4-45-375c-3.7-30.7-22.6-28.4-39-26.4s-35.4,7.2-34.1,18.6c1.4,11.4,0.2,10,10,15.9
		c9.8,5.9,16.4-1.5,21,32.2c4.5,33.7,41.1,342,41.9,353c0.8,11,3.6,17.7-8.3,23.2c-11.9,5.5-13.2,8.3-9.5,34.3l545.6-65.5
		c0,0,178.5-18.1,176.7-146.7C898.3,434.8,750.8,447.4,750.8,447.4z M637.6,264.1c26.5-3.2,77-24,94.6,83.6
		c17.6,107.7-79.8,101.9-96.6,106.6L617,299.5C617,299.5,611.2,267.3,637.6,264.1z M709.5,688.8c-45.4,7.5-48.6-25.1-50.4-37.8
		s-20.8-173.5-20.8-173.5c104.7-17.4,130.1,31,140.3,101.3C788.8,649.1,755,681.4,709.5,688.8z"/>
</g>
<g id="Mousse">
	<path class="st2" d="M206.8,398.9l301.5-36.2c0,0-7.1-59-8.5-70.9c-1.4-11.9,0.7-23.6-40.7-24.7c-41.4-1.1-44.2-4.9-60.8-2.5
		c-16.5,2.4-56.6,21-81.1,24.2s-57.7-2.1-79.3,2.1c-21.7,4.3-42.8,10.5-39.8,35.3C201.1,351.1,206.8,398.9,206.8,398.9z"/>
</g>
<g id="Bulles">
	<circle class="st2" cx="306" cy="446.6" r="13.4"/>
	<circle class="st2" cx="434.1" cy="618.3" r="13.3"/>
	<circle class="st3" cx="416.9" cy="478.7" r="27.6"/>
	<circle class="st3" cx="336.9" cy="612.2" r="17.3"/>
	<circle class="st3" cx="478.5" cy="675.2" r="22.4"/>
	<circle class="st2" cx="257" cy="550" r="8"/>
</g>
</svg>
