<?xml version="1.0" standalone="no"?>
<!DOCTYPE svg PUBLIC "-//W3C//DTD SVG 20010904//EN"
 "http://www.w3.org/TR/2001/REC-SVG-20010904/DTD/svg10.dtd">
<svg version="1.0" xmlns="http://www.w3.org/2000/svg"
 width="800.000000pt" height="800.000000pt" viewBox="0 0 800.000000 800.000000"
 preserveAspectRatio="xMidYMid meet">
<metadata>
Created by potrace 1.11, written by Peter Selinger 2001-2013
</metadata>
<g transform="translate(0.000000,800.000000) scale(0.100000,-0.100000)"
fill="#000000" stroke="none">
<path d="M3837 7989 c-481 -32 -989 -161 -1362 -344 -444 -218 -704 -504 -795
-874 -81 -328 -84 -868 -9 -1526 l22 -190 -67 -105 c-77 -120 -133 -232 -173
-346 -25 -71 -28 -93 -28 -209 0 -123 2 -133 29 -188 46 -94 123 -157 193
-157 13 0 26 -6 29 -14 3 -7 -9 -76 -27 -152 -146 -642 -402 -1150 -798 -1584
-40 -44 -50 -62 -50 -90 l0 -35 82 86 c213 221 414 520 557 829 109 237 201
512 265 799 19 84 35 154 37 155 2 1 30 7 63 14 82 16 262 107 366 186 103 78
224 204 261 272 34 64 94 243 108 325 6 35 14 114 18 174 l7 110 308 34 c169
19 310 31 313 28 3 -3 -4 -103 -15 -224 -12 -120 -23 -267 -26 -328 -2 -60
-13 -231 -24 -380 -96 -1295 -76 -2292 54 -2740 35 -122 72 -200 121 -260 l41
-51 6 -189 c10 -274 65 -935 83 -997 3 -11 15 -18 31 -18 24 0 25 2 20 37 -4
21 -15 126 -26 233 -41 395 -55 622 -55 930 -1 272 1 319 21 430 26 146 54
242 95 325 48 99 35 100 214 -11 686 -422 1244 -660 1506 -641 89 6 160 41
230 115 222 233 262 752 97 1255 -44 137 -144 350 -213 457 -25 39 -46 74 -46
79 0 4 20 57 45 117 211 501 347 1181 387 1922 12 221 13 233 33 237 11 3 205
25 430 49 226 25 544 59 708 77 l297 33 0 48 c0 49 -1 49 -45 69 -44 20 -56
20 -578 10 -292 -6 -591 -13 -663 -16 l-131 -6 -7 32 c-3 17 -6 61 -6 98 0 36
-7 176 -15 311 -43 696 -74 911 -146 1017 -48 70 -211 235 -309 313 -319 254
-714 421 -1085 459 -159 16 -252 19 -378 10z m1802 -1101 c22 -179 71 -841 71
-960 l0 -30 -57 7 c-158 18 -276 70 -374 163 -218 205 -224 539 -14 747 33 33
85 73 115 89 62 34 183 75 221 76 26 0 27 -2 38 -92z m26 -1728 c-21 -311 -50
-556 -90 -775 -8 -44 -17 -103 -20 -131 -16 -173 -146 -634 -252 -894 l-39
-95 -100 -18 c-134 -24 -493 -34 -634 -18 -235 28 -461 110 -568 206 -157 141
-253 565 -253 1110 0 233 19 697 29 705 4 4 61 12 127 19 66 7 320 34 565 61
524 58 1172 128 1215 132 28 3 30 0 33 -32 2 -19 -4 -140 -13 -270z m-2458
-717 c-3 -10 -5 -2 -5 17 0 19 2 27 5 18 2 -10 2 -26 0 -35z m-1720 -80 c-2
-16 -4 -3 -4 27 0 30 2 43 4 28 2 -16 2 -40 0 -55z m2160 -75 c-2 -13 -4 -5
-4 17 -1 22 1 32 4 23 2 -10 2 -28 0 -40z m-450 10 c-3 -7 -5 -2 -5 12 0 14 2
19 5 13 2 -7 2 -19 0 -25z m-10 -105 c-3 -10 -5 -4 -5 12 0 17 2 24 5 18 2 -7
2 -21 0 -30z m470 -35 c-3 -8 -6 -5 -6 6 -1 11 2 17 5 13 3 -3 4 -12 1 -19z
m10 -80 c-3 -7 -5 -2 -5 12 0 14 2 19 5 13 2 -7 2 -19 0 -25z m-490 -105 c-2
-16 -4 -5 -4 22 0 28 2 40 4 28 2 -13 2 -35 0 -50z m-10 -130 c-3 -10 -5 -2
-5 17 0 19 2 27 5 18 2 -10 2 -26 0 -35z m0 -570 c-3 -10 -5 -4 -5 12 0 17 2
24 5 18 2 -7 2 -21 0 -30z m10 -130 c-3 -10 -5 -2 -5 17 0 19 2 27 5 18 2 -10
2 -26 0 -35z m1250 31 c-3 -3 -12 -4 -19 -1 -8 3 -5 6 6 6 11 1 17 -2 13 -5z
m80 -10 c-3 -3 -12 -4 -19 -1 -8 3 -5 6 6 6 11 1 17 -2 13 -5z m570 0 c-3 -3
-12 -4 -19 -1 -8 3 -5 6 6 6 11 1 17 -2 13 -5z m-74 -11 c-7 -2 -19 -2 -25 0
-7 3 -2 5 12 5 14 0 19 -2 13 -5z m-200 -10 c-13 -2 -35 -2 -50 0 -16 2 -5 4
22 4 28 0 40 -2 28 -4z m-1616 -140 c-3 -10 -5 -4 -5 12 0 17 2 24 5 18 2 -7
2 -21 0 -30z m20 -145 c-3 -8 -6 -5 -6 6 -1 11 2 17 5 13 3 -3 4 -12 1 -19z
m-70 -470 c-2 -24 -4 -7 -4 37 0 44 2 63 4 43 2 -21 2 -57 0 -80z m2440 -90
c-3 -8 -6 -5 -6 6 -1 11 2 17 5 13 3 -3 4 -12 1 -19z m-2430 -75 c-3 -10 -5
-2 -5 17 0 19 2 27 5 18 2 -10 2 -26 0 -35z m10 -160 c-3 -10 -5 -4 -5 12 0
17 2 24 5 18 2 -7 2 -21 0 -30z m20 -185 c-3 -8 -6 -5 -6 6 -1 11 2 17 5 13 3
-3 4 -12 1 -19z m2400 -40 c-3 -8 -6 -5 -6 6 -1 11 2 17 5 13 3 -3 4 -12 1
-19z m-2250 -405 c-3 -10 -5 -4 -5 12 0 17 2 24 5 18 2 -7 2 -21 0 -30z m1820
-59 c-3 -3 -12 -4 -19 -1 -8 3 -5 6 6 6 11 1 17 -2 13 -5z"/>
<path d="M800 2134 c0 -41 -35 -6 355 -359 800 -725 1613 -1431 1948 -1693 98
-77 109 -83 146 -80 l40 3 -116 90 c-345 266 -1248 1051 -2090 1818 l-283 257
0 -36z"/>
</g>
</svg>
