<?xml version="1.0" encoding="iso-8859-1"?>
<!-- Generator: Adobe Illustrator 19.0.0, SVG Export Plug-In . SVG Version: 6.00 Build 0)  -->
<svg xmlns="http://www.w3.org/2000/svg" xmlns:xlink="http://www.w3.org/1999/xlink" version="1.1" id="Layer_1" x="0px" y="0px" viewBox="0 0 511.995 511.995" style="enable-background:new 0 0 511.995 511.995;" xml:space="preserve" width="512px" height="512px">
<g>
	<g>
		<path d="M496.291,252.216H366.089c0.646-1.679,1.113-3.454,1.323-5.325c1.321-11.787-7.163-22.412-18.95-23.732l-99.572-11.156    c-6.069-0.682-12.142,1.257-16.697,5.325l-33.62,30.03l-38.949-86.367l35.459-79.849c4.996-11.251-4.001-23.746-16.266-22.568    l-64.362,6.208c7.086,5.32,12.809,12.509,16.393,21.073c1.288,3.076,2.258,6.231,2.92,9.426l20.677-1.994l-20.945,47.165    l-57.423,25.309l13.15,10.09l-49.403-18.357l8.992-15.122c-4.993-4.761-9.062-10.578-11.844-17.222    c-2.592-6.192-3.91-12.7-3.966-19.217L2.266,157.63c-5.13,8.63-1.192,19.826,8.234,23.328l82.074,30.498l-17.434-3.562    l43.968,105.046h-18.97L69.303,206.7l-33.609-6.867l38.462,132.518c1.883,6.488,7.825,10.951,14.58,10.951l51.688,0.031    l-0.006,62.139l-36.063,29.44c-4.481,3.658-5.147,10.254-1.49,14.735c3.657,4.481,10.254,5.148,14.735,1.49l22.818-18.627v10.514    c0,5.784,4.688,10.472,10.472,10.472c5.784,0,10.472-4.688,10.472-10.472V432.51l22.818,18.627    c4.484,3.659,11.08,2.987,14.735-1.49c3.658-4.481,2.991-11.077-1.49-14.735l-36.063-29.439v-62.17h53.134    c8.384,0,15.181-6.797,15.181-15.181s-6.797-15.181-15.181-15.181h-24.872l64.022-57.187l18.075,2.025    c-2.321,2.738-3.727,6.276-3.727,10.146c0,8.676,7.033,15.708,15.708,15.708h2.094v159.394c0,5.783,4.688,10.472,10.472,10.472    c5.784,0,10.472-4.688,10.472-10.472V283.632h167.556v159.394c0,5.783,4.688,10.472,10.472,10.472s10.472-4.688,10.472-10.472    V283.632h1.047c8.676,0,15.708-7.033,15.708-15.708C511.995,259.248,504.966,252.216,496.291,252.216z" fill="#FFFFFF"/>
	</g>
</g>
<g>
	<g>
		<path d="M118.289,91.109c-7.951-18.998-29.789-27.934-48.77-19.99c-18.988,7.948-27.937,29.782-19.989,48.77    c7.951,18.996,29.789,27.935,48.77,19.99C117.287,131.932,126.237,110.097,118.289,91.109z" fill="#FFFFFF"/>
	</g>
</g>
<g>
	<g>
		<path d="M471.157,219.864h-72.112c-5.205,0-9.425,4.22-9.425,9.425s4.22,9.425,9.425,9.425h72.112c5.205,0,9.425-4.22,9.425-9.425    S476.362,219.864,471.157,219.864z" fill="#FFFFFF"/>
	</g>
</g>
<g>
	<g>
		<path d="M471.157,189.636h-72.112c-5.205,0-9.425,4.22-9.425,9.425c0,5.205,4.22,9.425,9.425,9.425h72.112    c5.205,0,9.425-4.22,9.425-9.425C480.582,193.855,476.362,189.636,471.157,189.636z" fill="#FFFFFF"/>
	</g>
</g>
<g>
	<g>
		<path d="M471.157,159.408h-72.112c-5.205,0-9.425,4.22-9.425,9.425c0,5.205,4.22,9.425,9.425,9.425h72.112    c5.205,0,9.425-4.22,9.425-9.425C480.582,163.627,476.362,159.408,471.157,159.408z" fill="#FFFFFF"/>
	</g>
</g>
<g>
	<g>
		<path d="M471.157,129.18h-72.112c-5.205,0-9.425,4.22-9.425,9.425c0,5.205,4.22,9.425,9.425,9.425h72.112    c5.205,0,9.425-4.22,9.425-9.425C480.582,133.4,476.362,129.18,471.157,129.18z" fill="#FFFFFF"/>
	</g>
</g>
<g>
</g>
<g>
</g>
<g>
</g>
<g>
</g>
<g>
</g>
<g>
</g>
<g>
</g>
<g>
</g>
<g>
</g>
<g>
</g>
<g>
</g>
<g>
</g>
<g>
</g>
<g>
</g>
<g>
</g>
</svg>
