<?xml version="1.0" encoding="iso-8859-1"?>
<!-- Generator: Adobe Illustrator 19.0.0, SVG Export Plug-In . SVG Version: 6.00 Build 0)  -->
<svg xmlns="http://www.w3.org/2000/svg" xmlns:xlink="http://www.w3.org/1999/xlink" version="1.1" id="Layer_1" x="0px" y="0px" viewBox="0 0 511.991 511.991" style="enable-background:new 0 0 511.991 511.991;" xml:space="preserve" width="512px" height="512px">
<g>
	<g>
		<path d="M117.33,298.658c-5.891,0-10.663,4.781-10.663,10.672s4.772,10.664,10.663,10.664s10.664-4.773,10.664-10.664    S123.221,298.658,117.33,298.658z" fill="#FFFFFF"/>
	</g>
</g>
<g>
	<g>
		<circle cx="117.326" cy="351.995" r="10.664" fill="#FFFFFF"/>
	</g>
</g>
<g>
	<g>
		<path d="M453.144,447.993v-0.001c4.094-108.154-9.859-317.713-175.825-341.33h-10.655V83.991    c18.39-4.742,31.999-21.445,31.999-41.328C298.663,19.101,279.554,0,256,0c-23.57,0-42.671,19.101-42.671,42.663    c0,19.882,13.601,36.585,31.999,41.328v22.671h-10.664h-21.335h-53.327v-32h-0.008c0-5.891-4.773-10.664-10.664-10.664H96.003    c-0.008,0-0.008,0-0.008,0c-5.891,0-10.664,4.773-10.664,10.664s4.773,10.672,10.664,10.672c0,0,0,0,0.008,0h42.663v21.328H96.003    c-17.68,0-32,14.382-32,32c0,17.617,14.32,31.906,32,31.906l23.265,0.016l-12.601,47.03l20.601,5.523l-8.805,32.858H21.332v85.334    l21.359,106.686l-0.016,42.64c-0.008,0-0.008,0-0.008,0c-5.891,0-10.664,4.781-10.664,10.672s4.773,10.663,10.664,10.663h106.662    c5.891,0,10.664-4.772,10.664-10.663s-4.766-10.664-10.656-10.672l0.016-42.577l21.312-106.748v-85.335h-30.116l7.328-27.335    l20.608,5.515l17.023-63.545l27.82,0.016v0.016c141.005,30.054,115.13,187.091,87.506,277.331h-44.835v63.998h21.319h170.669    h42.672v-63.998H453.144z M128.432,443.898l-0.407,2.063l-0.008,2.109l-0.016,42.585H64.003l0.016-42.632l0.008-2.125l-0.422-2.07    l-11.976-59.835h88.764L128.432,443.898z M149.33,277.332v61.889l-4.68,23.438h-27.32H47.363l-4.695-23.445v-61.882h70.334    c-0.008,0.188-0.031,0.375-0.031,0.562c0,5.891,4.781,10.671,10.672,10.671c4.93,0,9.07-3.358,10.289-7.913l0.016,0.008    l0.891-3.328H149.33z M153.4,208.051l-20.609-5.523l8.555-31.929l22.086,0.016L153.4,208.051z M213.329,149.317l-117.326-0.086    c-5.883,0-10.672-4.742-10.672-10.57c0-5.883,4.789-10.664,10.672-10.664h117.326V149.317z M234.664,42.663    c0-11.757,9.57-21.328,21.336-21.328c11.758,0,21.319,9.57,21.319,21.328c0,11.766-9.562,21.335-21.319,21.335    C244.234,63.998,234.664,54.429,234.664,42.663z M234.664,154.137v-26.14h41.109c21.39,3.219,40.78,10.125,57.686,20.515    c15.844,9.75,30.016,22.883,42.125,39.054c18.155,24.226,32.218,55.804,41.78,93.866c7.875,31.288,12.702,66.89,14.374,105.803    c0.953,22.163,0.75,42.897,0.047,60.757h-108.67c2.828-9.578,5.594-19.797,8.156-30.492    c18.985-79.443,16.704-143.388-6.796-190.067C306.304,191.355,276.133,166.754,234.664,154.137z M469.316,490.655H277.319v-21.327    h191.997V490.655z" fill="#FFFFFF"/>
	</g>
</g>
<g>
</g>
<g>
</g>
<g>
</g>
<g>
</g>
<g>
</g>
<g>
</g>
<g>
</g>
<g>
</g>
<g>
</g>
<g>
</g>
<g>
</g>
<g>
</g>
<g>
</g>
<g>
</g>
<g>
</g>
</svg>
